<?xml version="1.0" encoding="iso-8859-1"?>
<!-- Generator: Adobe Illustrator 19.1.0, SVG Export Plug-In . SVG Version: 6.00 Build 0)  -->
<svg version="1.1" id="Capa_1" xmlns="http://www.w3.org/2000/svg" xmlns:xlink="http://www.w3.org/1999/xlink" x="0px" y="0px"
	 viewBox="0 0 64.501 64.501" style="enable-background:new 0 0 64.501 64.501;" xml:space="preserve">
<g>
	<g id="group-30svg">
		<path id="path-1_23_" style="fill:#53ECF4;" d="M35.592,50.383v14.118L57.63,45.9c1.207-1.208,1.116-3.166-0.092-4.374
			L35.592,22.925v15.053c-7-4.133-11.353-11.574-11.353-20.089c0-4.975,1.509-9.586,4.142-13.388
			c-9.363,3.111-16.183,11.934-16.183,22.341C12.198,39.817,21.592,50.337,35.592,50.383z"/>
		<path id="path-2_21_" d="M31.092,63.001c-0.213,0-0.428-0.045-0.628-0.138c-0.531-0.245-0.872-0.777-0.872-1.362V48.839
			C16.046,48.075,6.011,37.571,6.011,23.842c0-10.832,6.841-20.382,17.023-23.765c0.611-0.205,1.286,0.007,1.673,0.525
			c0.388,0.516,0.4,1.222,0.033,1.754c-2.454,3.541-3.751,7.875-3.751,12.533c0,6.85,3.171,13.135,8.603,17.275V19.925
			c0-0.585,0.34-1.117,0.871-1.362c0.531-0.247,1.156-0.161,1.601,0.22l21.822,18.602c0.03,0.025,0.059,0.053,0.088,0.08
			c0.87,0.87,1.341,2.028,1.328,3.264c-0.013,1.218-0.496,2.366-1.361,3.232c-0.028,0.027-0.057,0.055-0.088,0.08L32.065,62.642
			C31.789,62.878,31.442,63.001,31.092,63.001z M20.036,4.685C13.305,8.534,9.011,15.784,9.011,23.842
			c0,12.73,9.288,22,22.086,22.041c0.826,0.003,1.495,0.674,1.495,1.5v10.865l19.261-16.444c0.286-0.303,0.445-0.694,0.449-1.107
			c0.005-0.405-0.143-0.784-0.414-1.074L32.592,23.175v11.803c0,0.538-0.289,1.036-0.756,1.302c-0.469,0.268-1.042,0.264-1.507-0.01
			c-7.727-4.563-12.34-12.555-12.34-21.381C17.989,11.266,18.688,7.808,20.036,4.685z"/>
	</g>
</g>
<g>
</g>
<g>
</g>
<g>
</g>
<g>
</g>
<g>
</g>
<g>
</g>
<g>
</g>
<g>
</g>
<g>
</g>
<g>
</g>
<g>
</g>
<g>
</g>
<g>
</g>
<g>
</g>
<g>
</g>
</svg>
