<?xml version="1.0" encoding="iso-8859-1"?>
<!-- Generator: Adobe Illustrator 19.1.0, SVG Export Plug-In . SVG Version: 6.00 Build 0)  -->
<svg version="1.1" id="Capa_1" xmlns="http://www.w3.org/2000/svg" xmlns:xlink="http://www.w3.org/1999/xlink" x="0px" y="0px"
	 viewBox="0 0 64.499 64.499" style="enable-background:new 0 0 64.499 64.499;" xml:space="preserve">
<g>
	<g id="group-31svg">
		<path id="path-1_24_" style="fill:#53ECF4;" d="M34.38,50.381v14.118L13.303,45.898c-1.208-1.208-1.597-3.166-0.389-4.374
			L34.38,22.923v15.053c7-4.133,12.312-11.574,12.312-20.089c0-4.975-1.027-9.586-3.661-13.388
			C52.394,7.61,58.494,16.433,58.494,26.84C58.494,39.815,48.38,50.335,34.38,50.381z"/>
		<path id="path-2_22_" d="M29.88,62.999c-0.355,0-0.707-0.127-0.986-0.369L7.567,44.029c-0.026-0.022-0.05-0.046-0.075-0.07
			c-0.852-0.853-1.375-1.962-1.471-3.123c-0.108-1.289,0.321-2.486,1.208-3.373c0.026-0.025,0.053-0.051,0.081-0.075L28.9,18.786
			c0.447-0.382,1.072-0.47,1.605-0.226c0.533,0.244,0.875,0.776,0.875,1.363v12.25c5.647-4.243,9.062-10.659,9.062-17.286
			c0-4.947-1.183-9.163-3.519-12.533c-0.367-0.532-0.355-1.238,0.033-1.754c0.387-0.517,1.064-0.726,1.673-0.525
			C48.605,3.39,55.307,12.939,55.307,23.84c0,13.736-10.184,24.244-23.927,24.998v12.661c0,0.588-0.344,1.122-0.879,1.365
			C30.302,62.955,30.091,62.999,29.88,62.999z M9.582,41.806L28.38,58.2V47.381c0-0.826,0.669-1.497,1.495-1.5
			c12.788-0.041,22.432-9.517,22.432-22.041c0-8.249-4.105-15.394-10.741-19.188c1.247,3.026,1.876,6.451,1.876,10.235
			c0,8.526-4.904,16.719-12.799,21.381c-0.466,0.272-1.039,0.277-1.507,0.01c-0.467-0.266-0.756-0.764-0.756-1.302V23.195
			L9.318,39.617c-0.237,0.255-0.34,0.581-0.308,0.97C9.046,41.022,9.254,41.464,9.582,41.806z"/>
	</g>
</g>
<g>
</g>
<g>
</g>
<g>
</g>
<g>
</g>
<g>
</g>
<g>
</g>
<g>
</g>
<g>
</g>
<g>
</g>
<g>
</g>
<g>
</g>
<g>
</g>
<g>
</g>
<g>
</g>
<g>
</g>
</svg>
